<?xml version="1.0" encoding="utf-8"?>
<!-- Generator: Adobe Illustrator 16.0.0, SVG Export Plug-In . SVG Version: 6.00 Build 0)  -->
<!DOCTYPE svg PUBLIC "-//W3C//DTD SVG 1.1//EN" "http://www.w3.org/Graphics/SVG/1.1/DTD/svg11.dtd">
<svg version="1.1" id="Capa_1" xmlns="http://www.w3.org/2000/svg" xmlns:xlink="http://www.w3.org/1999/xlink" x="0px" y="0px"
	 width="40.631px" height="50.693px" viewBox="0 0 40.631 50.693" enable-background="new 0 0 40.631 50.693" xml:space="preserve">
<g>
	<g>
		<g>
			<path fill="none" d="M35.307,8.51h-4.394c-0.674,0-1.217,0.543-1.217,1.217v4.391c0,0.673,0.543,1.219,1.217,1.219h4.394
				c0.67,0,1.213-0.546,1.213-1.219V9.727C36.52,9.053,35.977,8.51,35.307,8.51z"/>
			<path fill="#FFFFFF" d="M40.631,12.978c0-4.486-3.638-8.124-8.126-8.124H10.532V15.19H8.863V4.854H8.124
				c-0.14,0-0.279,0.003-0.417,0.009V15.19H6.035V5.125C5.684,5.22,5.341,5.335,5.01,5.474v9.717H3.34V6.414
				C1.315,7.893,0,10.279,0,12.978v5.04h13.128c1.796-1.609,4.167-2.588,6.768-2.588c2.603,0,4.974,0.979,6.77,2.588h13.966V12.978z
				 M36.52,14.117c0,0.673-0.543,1.219-1.213,1.219h-4.394c-0.674,0-1.217-0.546-1.217-1.219V9.727c0-0.674,0.543-1.217,1.217-1.217
				h4.394c0.67,0,1.213,0.543,1.213,1.217V14.117z"/>
			<path fill="#FFFFFF" d="M19.896,35.745c-5.607,0-10.156-4.548-10.156-10.157c0-2.26,0.74-4.342,1.984-6.031H0v17.801
				c0,4.489,3.638,8.126,8.124,8.126h24.381c4.488,0,8.126-3.637,8.126-8.126V19.557h-12.56c1.245,1.689,1.985,3.771,1.985,6.031
				C30.057,31.197,25.507,35.745,19.896,35.745z"/>
			<path fill="#FFFFFF" d="M19.896,17.612c-4.402,0-7.974,3.571-7.974,7.976c0,4.402,3.571,7.971,7.974,7.971
				c4.404,0,7.974-3.568,7.974-7.971C27.869,21.184,24.3,17.612,19.896,17.612z M19.896,31.378c-3.196,0-5.79-2.594-5.79-5.79
				c0-3.2,2.594-5.792,5.79-5.792c3.198,0,5.792,2.592,5.792,5.792C25.688,28.784,23.094,31.378,19.896,31.378z"/>
		</g>
	</g>
</g>
</svg>
