<?xml version="1.0" encoding="utf-8"?>
<!-- Generator: Adobe Illustrator 16.0.0, SVG Export Plug-In . SVG Version: 6.00 Build 0)  -->
<!DOCTYPE svg PUBLIC "-//W3C//DTD SVG 1.1//EN" "http://www.w3.org/Graphics/SVG/1.1/DTD/svg11.dtd">
<svg version="1.1" id="Capa_1" xmlns="http://www.w3.org/2000/svg" xmlns:xlink="http://www.w3.org/1999/xlink" x="0px" y="0px"
	 width="131.061px" height="139.933px" viewBox="0 0 131.061 139.933" enable-background="new 0 0 131.061 139.933"
	 xml:space="preserve">
<g>
	<g>
		<g>
			<rect x="65.396" y="62.401" fill="#C4D545" width="65.665" height="49.843"/>
			<g>
				<rect x="102.603" y="23.238" fill="#97BEC6" width="28.458" height="33.424"/>
			</g>
			<path fill="#C4D545" d="M26.649,34.55c0.688-3.449,2.412-6.401,5.137-8.785c2.939-2.569,6.424-3.874,10.355-3.874
				c3.166,0,6.08,0.862,8.666,2.562c2.588,1.7,4.529,3.971,5.77,6.747c0.476,1.072,0.842,2.194,1.09,3.35H26.649z"/>
			<path fill="#FFFFFF" d="M98.905,6.726v18.146c-1.701-2.03-3.777-3.638-6.191-4.794c-2.568-1.248-5.324-1.882-8.191-1.882
				c-0.674,0-1.326,0.035-1.932,0.101c-4.209,0.438-7.928,2.111-11.057,4.97c-3.093,2.823-5.104,6.349-5.975,10.473
				c-0.572,2.62-0.598,5.333-0.078,8.061c0.52,2.739,1.57,5.255,3.121,7.479c1.551,2.227,3.556,4.08,5.959,5.508
				c2.415,1.436,5.014,2.285,7.718,2.52c0.614,0.059,1.232,0.088,1.841,0.088c3.123,0,6.111-0.78,8.883-2.318h0.115l0.397-0.27
				c2.101-1.432,3.905-3.129,5.39-5.069v6.923h4.525V6.726H98.905z"/>
			<path fill="#97BEC6" d="M82.636,53.623c-2.15-0.205-4.229-0.894-6.178-2.046c-1.951-1.152-3.568-2.635-4.803-4.4
				c-1.243-1.803-2.099-3.845-2.543-6.068c-0.443-2.22-0.43-4.439,0.043-6.596c0.739-3.348,2.377-6.216,4.859-8.521
				c2.541-2.306,5.554-3.654,8.963-4.01c0.499-0.059,1.02-0.089,1.545-0.089c2.301,0,4.515,0.51,6.582,1.514
				c2.568,1.239,4.646,3.081,6.181,5.469c1.535,2.39,2.343,5.055,2.403,7.91c0.028,2.781-0.711,5.563-2.195,8.265
				c-1.486,2.706-3.521,4.953-6.043,6.679c-2.244,1.312-4.671,1.978-7.215,1.978C83.712,53.706,83.176,53.678,82.636,53.623z"/>
			<g>
				<path fill="#FFFFFF" d="M17.926,18.506c-0.411-0.082-0.845-0.123-1.286-0.123h-0.186c-2.602,0-4.967,0.776-7.023,2.301
					c-0.092,0.066-0.184,0.133-0.271,0.203v-1.758H4.633v37.533h4.526L9.155,29.791c0.027-0.318,0.068-0.641,0.114-0.929
					c0.362-1.913,1.292-3.396,2.84-4.532c1.562-1.144,3.248-1.592,5.155-1.385l1.508,0.164l0.596-4.315L17.926,18.506z"/>
				<rect x="4.633" y="62.495" fill="#FFFFFF" width="4.526" height="49.75"/>
			</g>
			<path fill="#FFFFFF" d="M46.547,74.616v5.837c-1.7-2.03-3.777-3.638-6.191-4.795c-2.565-1.248-5.321-1.88-8.19-1.88
				c-0.674,0-1.326,0.033-1.934,0.101c-4.207,0.438-7.926,2.109-11.056,4.969c-3.092,2.824-5.103,6.35-5.976,10.473
				c-0.57,2.62-0.596,5.332-0.078,8.061c0.521,2.74,1.57,5.256,3.121,7.48c1.551,2.227,3.557,4.079,5.961,5.507
				c2.414,1.437,5.012,2.286,7.717,2.521c0.619,0.058,1.238,0.088,1.841,0.088c3.124,0,6.111-0.779,8.884-2.319h0.113l0.399-0.27
				c2.101-1.432,3.905-3.129,5.389-5.07v6.926h4.524V74.616H46.547z M32.165,78.301c2.174,0,4.266,0.481,6.221,1.432
				c2.428,1.171,4.395,2.912,5.844,5.17c1.451,2.26,2.215,4.776,2.271,7.472c0.027,2.638-0.676,5.28-2.092,7.856
				c-1.423,2.592-3.369,4.742-5.736,6.363c-2.551,1.494-5.303,2.098-8.316,1.785c-2.027-0.193-3.99-0.846-5.834-1.934
				c-1.848-1.092-3.379-2.492-4.544-4.156c-1.179-1.711-1.99-3.649-2.411-5.762c-0.423-2.107-0.41-4.195,0.04-6.212
				c0.703-3.209,2.255-5.947,4.605-8.13c2.407-2.184,5.266-3.464,8.503-3.802C31.187,78.33,31.673,78.301,32.165,78.301z"/>
			<polygon fill="#FFFFFF" points="111.585,33.827 101.774,33.827 101.774,38.351 111.585,38.351 111.585,74.57 66.225,74.57 
				66.225,62.401 61.699,62.401 61.699,74.57 54.613,74.57 54.613,79.094 61.699,79.094 61.699,112.244 66.225,112.244 
				66.225,79.094 116.108,79.094 116.108,77.546 116.108,74.57 116.108,38.351 116.108,33.827 			"/>
			<path fill="#FFFFFF" d="M61.443,35.937c-0.17-1.832-0.611-3.622-1.311-5.323c-1.469-3.535-3.851-6.449-7.079-8.664
				c-3.239-2.222-6.896-3.347-10.865-3.347c-3.469,0-6.733,0.872-9.705,2.591c-2.969,1.718-5.345,4.094-7.063,7.063
				c-1.718,2.97-2.589,6.234-2.589,9.703c0,1.548,0.181,3.067,0.53,4.478c0.016,0.11,0.042,0.216,0.071,0.298
				c1.068,4.208,3.367,7.726,6.834,10.458c3.471,2.736,7.48,4.125,11.922,4.125c3.365,0,6.529-0.814,9.402-2.417
				c2.869-1.6,5.205-3.818,6.94-6.589l0.409-0.654l-2.303-3.929l-1.088,1.917c-1.324,2.33-3.193,4.219-5.555,5.616
				c-2.357,1.394-4.983,2.1-7.807,2.1c-3.515,0-6.688-1.086-9.435-3.23c-2.71-2.112-4.544-4.843-5.452-8.114l-0.04-0.288
				c-0.297-1.157-0.456-2.343-0.476-3.53h32.406c0.844,0,1.293-0.096,1.652-0.354C61.646,37.278,61.491,36.253,61.443,35.937z
				 M57.157,34.245H27.241c0.747-3.086,2.381-5.747,4.863-7.916c2.861-2.503,6.254-3.773,10.084-3.773
				c3.08,0,5.919,0.839,8.436,2.493c2.522,1.657,4.412,3.869,5.619,6.57C56.618,32.461,56.925,33.343,57.157,34.245z"/>
		</g>
		<rect x="4.633" y="115.514" fill="#FFFFFF" width="126.428" height="24.419"/>
		<g>
			<path fill="#434244" d="M21.739,131.104c-0.177,0.913-0.457,1.737-0.842,2.474c-0.384,0.737-0.867,1.369-1.452,1.898
				c-0.585,0.528-1.261,0.937-2.03,1.225c-0.768,0.289-1.617,0.433-2.545,0.433c-1.042,0-2.015-0.177-2.919-0.529
				c-0.905-0.353-1.687-0.882-2.343-1.588s-1.173-1.575-1.549-2.61c-0.377-1.033-0.564-2.24-0.564-3.619
				c0-1.348,0.172-2.562,0.516-3.645c0.345-1.082,0.838-1.997,1.479-2.742c0.64-0.744,1.42-1.318,2.342-1.72
				c0.92-0.4,1.949-0.602,3.086-0.602c0.993,0,1.895,0.149,2.703,0.448s1.504,0.711,2.09,1.235c0.584,0.524,1.048,1.14,1.393,1.846
				c0.344,0.706,0.557,1.459,0.637,2.26H18.4c-0.225-0.913-0.657-1.622-1.298-2.126c-0.641-0.505-1.36-0.756-2.161-0.756
				c-1.394,0-2.418,0.5-3.075,1.5c-0.656,1.002-0.984,2.375-0.984,4.12c0,1.777,0.324,3.158,0.973,4.144
				c0.648,0.984,1.622,1.477,2.919,1.477c0.993,0,1.79-0.268,2.39-0.805c0.601-0.535,1.013-1.309,1.237-2.317H21.739z"/>
			<path fill="#434244" d="M31.563,137.134c-2.467,0-4.359-0.721-5.682-2.162c-1.32-1.44-1.98-3.515-1.98-6.222
				c0-1.345,0.168-2.554,0.504-3.627c0.336-1.072,0.832-1.98,1.489-2.727c0.655-0.744,1.456-1.312,2.401-1.705
				c0.945-0.392,2.033-0.588,3.268-0.588c1.217,0,2.301,0.196,3.254,0.588c0.953,0.393,1.75,0.965,2.391,1.718
				s1.129,1.669,1.466,2.751c0.335,1.08,0.504,2.302,0.504,3.662c0,2.754-0.652,4.828-1.958,6.221
				C35.915,136.438,34.029,137.134,31.563,137.134z M31.563,134.274c0.592,0,1.152-0.107,1.682-0.323
				c0.527-0.217,0.988-0.544,1.381-0.985c0.393-0.44,0.7-1.005,0.925-1.692c0.224-0.689,0.337-1.506,0.337-2.451
				c0-1.889-0.369-3.322-1.105-4.299s-1.811-1.465-3.219-1.465c-1.41,0-2.49,0.488-3.243,1.465s-1.13,2.41-1.13,4.299
				c0,1.891,0.381,3.271,1.142,4.144C29.093,133.84,30.17,134.274,31.563,134.274z"/>
			<path fill="#434244" d="M41.892,136.581v-15.95h3.338v13.044h7.904v2.906H41.892z"/>
			<path fill="#434244" d="M62.165,137.134c-2.467,0-4.359-0.721-5.682-2.162c-1.32-1.44-1.981-3.515-1.981-6.222
				c0-1.345,0.169-2.554,0.505-3.627c0.336-1.072,0.832-1.98,1.489-2.727c0.656-0.744,1.456-1.312,2.401-1.705
				c0.945-0.392,2.033-0.588,3.268-0.588c1.217,0,2.301,0.196,3.254,0.588c0.953,0.393,1.75,0.965,2.391,1.718
				c0.64,0.753,1.129,1.669,1.465,2.751c0.336,1.08,0.504,2.302,0.504,3.662c0,2.754-0.651,4.828-1.957,6.221
				C66.517,136.438,64.631,137.134,62.165,137.134z M62.165,134.274c0.592,0,1.152-0.107,1.682-0.323
				c0.527-0.217,0.988-0.544,1.381-0.985c0.392-0.44,0.699-1.005,0.924-1.692c0.225-0.689,0.338-1.506,0.338-2.451
				c0-1.889-0.369-3.322-1.105-4.299s-1.811-1.465-3.219-1.465c-1.41,0-2.49,0.488-3.243,1.465s-1.13,2.41-1.13,4.299
				c0,1.891,0.381,3.271,1.143,4.144C59.694,133.84,60.771,134.274,62.165,134.274z"/>
			<path fill="#434244" d="M84.839,136.581v-10.929l-2.978,10.929h-3.315l-2.954-10.882v10.882h-3.099v-15.95h4.9l2.882,11.699
				l2.884-11.699h4.803v15.95H84.839z"/>
			<path fill="#434244" d="M90.868,136.581v-15.95h7.855c1.568,0,2.762,0.389,3.578,1.166c0.817,0.777,1.226,1.838,1.226,3.183
				c0,0.688-0.185,1.301-0.552,1.837c-0.369,0.537-0.834,0.918-1.394,1.141c0.335,0.129,0.651,0.293,0.948,0.493
				s0.553,0.456,0.77,0.769c0.215,0.312,0.387,0.682,0.516,1.105c0.128,0.424,0.191,0.924,0.191,1.501
				c0,1.457-0.488,2.614-1.465,3.471s-2.474,1.285-4.491,1.285H90.868z M94.087,123.395v3.459h4.204c1.345,0,2.018-0.577,2.018-1.73
				c0-0.607-0.173-1.049-0.517-1.32s-0.908-0.408-1.693-0.408H94.087z M98.314,133.867c0.769,0,1.37-0.217,1.802-0.648
				c0.433-0.433,0.648-0.978,0.648-1.634c0-0.705-0.212-1.216-0.637-1.537c-0.424-0.32-1.012-0.48-1.766-0.48h-4.275v4.3H98.314z"/>
			<path fill="#434244" d="M106.361,136.581v-15.95h3.339v15.95H106.361z"/>
			<path fill="#434244" d="M123.655,136.581l-1.009-3.29h-5.885l-1.129,3.29h-3.53l5.691-15.95h3.868l5.621,15.95H123.655z
				 M119.692,124.211h-0.024l-2.042,6.365h4.061L119.692,124.211z"/>
		</g>
	</g>
</g>
</svg>
