<?xml version="1.0" encoding="utf-8"?>
<!-- Generator: Adobe Illustrator 16.0.0, SVG Export Plug-In . SVG Version: 6.00 Build 0)  -->
<!DOCTYPE svg PUBLIC "-//W3C//DTD SVG 1.1//EN" "http://www.w3.org/Graphics/SVG/1.1/DTD/svg11.dtd">
<svg version="1.1" id="Capa_1" xmlns="http://www.w3.org/2000/svg" xmlns:xlink="http://www.w3.org/1999/xlink" x="0px" y="0px"
	 width="31.049px" height="50.688px" viewBox="0 0 31.049 50.688" enable-background="new 0 0 31.049 50.688" xml:space="preserve">
<g>
	<g>
		<g>
			<path fill="#FFFFFF" d="M25.039,33.948H14.746c-1.432,0-2.645-0.507-3.647-1.509C10.101,31.438,9.6,30.22,9.6,28.786v-5.153
				h15.439c1.433,0,2.655-0.513,3.676-1.533c1.021-1.02,1.529-2.243,1.529-3.669s-0.509-2.649-1.533-3.672
				c-1.026-1.018-2.253-1.533-3.687-1.533H9.6v-5.2c0-1.428-0.51-2.651-1.521-3.67c-1.014-1.021-2.23-1.531-3.65-1.531
				c-1.461,0-2.699,0.5-3.708,1.499c-1.016,1.001-1.524,2.239-1.524,3.707v20.762c0,4.289,1.524,7.949,4.562,10.994
				c3.041,3.043,6.711,4.561,10.992,4.561h10.294c1.427,0,2.651-0.51,3.671-1.53c1.021-1.016,1.529-2.24,1.529-3.671
				c0-1.426-0.51-2.648-1.529-3.668C27.694,34.455,26.472,33.948,25.039,33.948z"/>
		</g>
	</g>
</g>
</svg>
