<?xml version="1.0" encoding="utf-8"?>
<!-- Generator: Adobe Illustrator 16.0.0, SVG Export Plug-In . SVG Version: 6.00 Build 0)  -->
<!DOCTYPE svg PUBLIC "-//W3C//DTD SVG 1.1//EN" "http://www.w3.org/Graphics/SVG/1.1/DTD/svg11.dtd">
<svg version="1.1" id="Capa_1" xmlns="http://www.w3.org/2000/svg" xmlns:xlink="http://www.w3.org/1999/xlink" x="0px" y="0px"
	 width="42.266px" height="50.688px" viewBox="0 0 42.266 50.688" enable-background="new 0 0 42.266 50.688" xml:space="preserve">
<g>
	<g>
		<g>
			<g>
				<g>
					<defs>
						<path id="SVGID_1_" d="M21.128,22.233c-0.249,0-0.499,0-0.746,0c-4.758,0-9.431,0.092-14,0.28
							c-3.367,0-6.098,2.701-6.098,6.031C0.078,31.188-0.011,33.823,0,36.46c-0.011,2.637,0.078,5.274,0.284,7.915
							c0,3.329,2.73,6.031,6.098,6.031c4.809,0.203,9.727,0.29,14.746,0.28c5.014,0.01,9.933-0.077,14.745-0.28
							c3.369,0,6.103-2.702,6.103-6.031c0.201-2.641,0.29-5.278,0.285-7.915c0.005-2.637-0.084-5.271-0.285-7.915
							c0-3.33-2.733-6.031-6.103-6.031c-4.571-0.188-9.243-0.28-14.001-0.28C21.623,22.233,21.376,22.233,21.128,22.233"/>
					</defs>
					<clipPath id="SVGID_2_">
						<use xlink:href="#SVGID_1_"  overflow="visible"/>
					</clipPath>
				</g>
				<g>
					<defs>
						<path id="SVGID_3_" d="M21.128,22.233c-0.249,0-0.499,0-0.746,0c-4.758,0-9.431,0.092-14,0.28
							c-3.367,0-6.098,2.701-6.098,6.031C0.078,31.188-0.011,33.823,0,36.46c-0.011,2.637,0.078,5.274,0.284,7.915
							c0,3.329,2.73,6.031,6.098,6.031c4.809,0.203,9.727,0.29,14.746,0.28c5.014,0.01,9.933-0.077,14.745-0.28
							c3.369,0,6.103-2.702,6.103-6.031c0.201-2.641,0.29-5.278,0.285-7.915c0.005-2.637-0.084-5.271-0.285-7.915
							c0-3.33-2.733-6.031-6.103-6.031c-4.571-0.188-9.243-0.28-14.001-0.28C21.623,22.233,21.376,22.233,21.128,22.233"/>
					</defs>
					<use xlink:href="#SVGID_3_"  overflow="visible" fill="#FFFFFF"/>
					<clipPath id="SVGID_4_">
						<use xlink:href="#SVGID_3_"  overflow="visible"/>
					</clipPath>
					<rect x="-0.011" y="22.233" clip-path="url(#SVGID_4_)" fill="#FFFFFF" width="42.276" height="28.46"/>
				</g>
				<g>
					<defs>
						<path id="SVGID_5_" d="M21.128,22.233c-0.249,0-0.499,0-0.746,0c-4.758,0-9.431,0.092-14,0.28
							c-3.367,0-6.098,2.701-6.098,6.031C0.078,31.188-0.011,33.823,0,36.46c-0.011,2.637,0.078,5.274,0.284,7.915
							c0,3.329,2.73,6.031,6.098,6.031c4.809,0.203,9.727,0.29,14.746,0.28c5.014,0.01,9.933-0.077,14.745-0.28
							c3.369,0,6.103-2.702,6.103-6.031c0.201-2.641,0.29-5.278,0.285-7.915c0.005-2.637-0.084-5.271-0.285-7.915
							c0-3.33-2.733-6.031-6.103-6.031c-4.571-0.188-9.243-0.28-14.001-0.28C21.623,22.233,21.376,22.233,21.128,22.233"/>
					</defs>
					<clipPath id="SVGID_6_">
						<use xlink:href="#SVGID_5_"  overflow="visible"/>
					</clipPath>
				</g>
			</g>
			<g>
				<g>
					<defs>
						<polygon id="SVGID_7_" points="13.207,0 11.424,7.469 11.237,7.469 9.364,0 6.457,0 9.893,11.282 9.893,18.691 12.778,18.691 
							12.778,10.935 16.142,0 						"/>
					</defs>
					<clipPath id="SVGID_8_">
						<use xlink:href="#SVGID_7_"  overflow="visible"/>
					</clipPath>
				</g>
				<g>
					<defs>
						<polygon id="SVGID_9_" points="13.207,0 11.424,7.469 11.237,7.469 9.364,0 6.457,0 9.893,11.282 9.893,18.691 12.778,18.691 
							12.778,10.935 16.142,0 						"/>
					</defs>
					<use xlink:href="#SVGID_9_"  overflow="visible" fill="#FFFFFF"/>
					<clipPath id="SVGID_10_">
						<use xlink:href="#SVGID_9_"  overflow="visible"/>
					</clipPath>
					<rect x="6.457" clip-path="url(#SVGID_10_)" fill="#FFFFFF" width="9.685" height="18.691"/>
				</g>
				<g>
					<defs>
						<polygon id="SVGID_11_" points="13.207,0 11.424,7.469 11.237,7.469 9.364,0 6.457,0 9.893,11.282 9.893,18.691 
							12.778,18.691 12.778,10.935 16.142,0 						"/>
					</defs>
					<clipPath id="SVGID_12_">
						<use xlink:href="#SVGID_11_"  overflow="visible"/>
					</clipPath>
				</g>
			</g>
			<g>
				<g>
					<defs>
						<path id="SVGID_13_" d="M18.925,16.343c-0.188-0.209-0.277-0.5-0.277-0.881V7.951c0-0.302,0.097-0.545,0.294-0.733
							c0.198-0.184,0.449-0.272,0.762-0.272c0.339,0,0.613,0.089,0.821,0.272c0.21,0.188,0.312,0.432,0.312,0.733v7.511
							c0,0.37-0.099,0.658-0.303,0.873c-0.207,0.209-0.482,0.315-0.831,0.315C19.364,16.65,19.104,16.548,18.925,16.343
							 M17.048,5.503c-0.69,0.632-1.04,1.485-1.04,2.553v7.147c0,1.172,0.341,2.104,1.011,2.796c0.671,0.692,1.57,1.042,2.695,1.042
							c1.163,0,2.079-0.341,2.743-1.009c0.663-0.668,0.998-1.596,0.998-2.78v-7.12c0-1.052-0.34-1.912-1.018-2.578
							c-0.679-0.664-1.544-0.999-2.608-0.999C18.661,4.555,17.733,4.87,17.048,5.503"/>
					</defs>
					<clipPath id="SVGID_14_">
						<use xlink:href="#SVGID_13_"  overflow="visible"/>
					</clipPath>
				</g>
				<g>
					<defs>
						<path id="SVGID_15_" d="M18.925,16.343c-0.188-0.209-0.277-0.5-0.277-0.881V7.951c0-0.302,0.097-0.545,0.294-0.733
							c0.198-0.184,0.449-0.272,0.762-0.272c0.339,0,0.613,0.089,0.821,0.272c0.21,0.188,0.312,0.432,0.312,0.733v7.511
							c0,0.37-0.099,0.658-0.303,0.873c-0.207,0.209-0.482,0.315-0.831,0.315C19.364,16.65,19.104,16.548,18.925,16.343
							 M17.048,5.503c-0.69,0.632-1.04,1.485-1.04,2.553v7.147c0,1.172,0.341,2.104,1.011,2.796c0.671,0.692,1.57,1.042,2.695,1.042
							c1.163,0,2.079-0.341,2.743-1.009c0.663-0.668,0.998-1.596,0.998-2.78v-7.12c0-1.052-0.34-1.912-1.018-2.578
							c-0.679-0.664-1.544-0.999-2.608-0.999C18.661,4.555,17.733,4.87,17.048,5.503"/>
					</defs>
					<use xlink:href="#SVGID_15_"  overflow="visible" fill="#FFFFFF"/>
					<clipPath id="SVGID_16_">
						<use xlink:href="#SVGID_15_"  overflow="visible"/>
					</clipPath>
					<rect x="16.008" y="4.555" clip-path="url(#SVGID_16_)" fill="#FFFFFF" width="7.447" height="14.486"/>
				</g>
				<g>
					<defs>
						<path id="SVGID_17_" d="M18.925,16.343c-0.188-0.209-0.277-0.5-0.277-0.881V7.951c0-0.302,0.097-0.545,0.294-0.733
							c0.198-0.184,0.449-0.272,0.762-0.272c0.339,0,0.613,0.089,0.821,0.272c0.21,0.188,0.312,0.432,0.312,0.733v7.511
							c0,0.37-0.099,0.658-0.303,0.873c-0.207,0.209-0.482,0.315-0.831,0.315C19.364,16.65,19.104,16.548,18.925,16.343
							 M17.048,5.503c-0.69,0.632-1.04,1.485-1.04,2.553v7.147c0,1.172,0.341,2.104,1.011,2.796c0.671,0.692,1.57,1.042,2.695,1.042
							c1.163,0,2.079-0.341,2.743-1.009c0.663-0.668,0.998-1.596,0.998-2.78v-7.12c0-1.052-0.34-1.912-1.018-2.578
							c-0.679-0.664-1.544-0.999-2.608-0.999C18.661,4.555,17.733,4.87,17.048,5.503"/>
					</defs>
					<clipPath id="SVGID_18_">
						<use xlink:href="#SVGID_17_"  overflow="visible"/>
					</clipPath>
				</g>
			</g>
			<g>
				<g>
					<defs>
						<path id="SVGID_19_" d="M30.384,4.901V15.37c-0.243,0.3-0.504,0.547-0.794,0.74c-0.289,0.195-0.523,0.289-0.712,0.289
							c-0.243,0-0.416-0.068-0.523-0.217c-0.105-0.146-0.16-0.381-0.16-0.709V4.901H25.63v11.527c0,0.822,0.148,1.436,0.452,1.847
							c0.296,0.409,0.744,0.616,1.338,0.616c0.479,0,0.977-0.15,1.488-0.441c0.509-0.291,1.003-0.719,1.476-1.281v1.522h2.562V4.901
							H30.384z"/>
					</defs>
					<clipPath id="SVGID_20_">
						<use xlink:href="#SVGID_19_"  overflow="visible"/>
					</clipPath>
				</g>
				<g>
					<defs>
						<path id="SVGID_21_" d="M30.384,4.901V15.37c-0.243,0.3-0.504,0.547-0.794,0.74c-0.289,0.195-0.523,0.289-0.712,0.289
							c-0.243,0-0.416-0.068-0.523-0.217c-0.105-0.146-0.16-0.381-0.16-0.709V4.901H25.63v11.527c0,0.822,0.148,1.436,0.452,1.847
							c0.296,0.409,0.744,0.616,1.338,0.616c0.479,0,0.977-0.15,1.488-0.441c0.509-0.291,1.003-0.719,1.476-1.281v1.522h2.562V4.901
							H30.384z"/>
					</defs>
					<use xlink:href="#SVGID_21_"  overflow="visible" fill="#FFFFFF"/>
					<clipPath id="SVGID_22_">
						<use xlink:href="#SVGID_21_"  overflow="visible"/>
					</clipPath>
					<rect x="25.63" y="4.901" clip-path="url(#SVGID_22_)" fill="#FFFFFF" width="7.315" height="13.99"/>
				</g>
				<g>
					<defs>
						<path id="SVGID_23_" d="M30.384,4.901V15.37c-0.243,0.3-0.504,0.547-0.794,0.74c-0.289,0.195-0.523,0.289-0.712,0.289
							c-0.243,0-0.416-0.068-0.523-0.217c-0.105-0.146-0.16-0.381-0.16-0.709V4.901H25.63v11.527c0,0.822,0.148,1.436,0.452,1.847
							c0.296,0.409,0.744,0.616,1.338,0.616c0.479,0,0.977-0.15,1.488-0.441c0.509-0.291,1.003-0.719,1.476-1.281v1.522h2.562V4.901
							H30.384z"/>
					</defs>
					<clipPath id="SVGID_24_">
						<use xlink:href="#SVGID_23_"  overflow="visible"/>
					</clipPath>
				</g>
			</g>
			<path fill="#97BEC6" d="M12.133,26.844h-8.86v2.715h2.986v15.979h2.889V29.559h2.985V26.844z M16.857,42.217
				c-0.243,0.302-0.507,0.549-0.794,0.742c-0.292,0.192-0.53,0.288-0.719,0.288c-0.238,0-0.41-0.074-0.519-0.218
				c-0.108-0.147-0.164-0.386-0.164-0.712V31.748H12.1v11.526c0,0.822,0.152,1.438,0.449,1.852c0.302,0.405,0.751,0.612,1.342,0.612
				c0.479,0,0.977-0.147,1.49-0.441c0.511-0.29,1.001-0.717,1.477-1.278v1.52h2.56v-13.79h-2.56V42.217z M26.79,31.572
				c-0.398,0-0.793,0.11-1.183,0.333c-0.386,0.217-0.753,0.535-1.098,0.959v-6.021h-2.591v18.694h2.591v-1.061
				c0.34,0.423,0.702,0.729,1.093,0.935c0.395,0.201,0.839,0.303,1.342,0.303c0.76,0,1.339-0.261,1.743-0.782
				c0.4-0.521,0.604-1.271,0.604-2.25v-7.653c0-1.125-0.214-1.98-0.646-2.572C28.218,31.871,27.596,31.572,26.79,31.572
				 M26.647,42.304c0,0.442-0.072,0.76-0.22,0.954c-0.149,0.193-0.379,0.288-0.691,0.288c-0.219,0-0.427-0.047-0.623-0.147
				c-0.195-0.101-0.398-0.259-0.604-0.485V34.32c0.171-0.193,0.349-0.328,0.53-0.421c0.178-0.091,0.355-0.137,0.539-0.137
				c0.346,0,0.612,0.123,0.798,0.364c0.181,0.243,0.271,0.596,0.271,1.063V42.304z M38.768,38.966v-3.512
				c0-1.306-0.318-2.312-0.946-3.008c-0.633-0.698-1.531-1.046-2.702-1.046c-1.152,0-2.086,0.374-2.814,1.129
				c-0.721,0.755-1.082,1.73-1.082,2.925v6.19c0,1.327,0.326,2.374,0.989,3.132c0.661,0.755,1.562,1.133,2.708,1.133
				c1.28,0,2.238-0.354,2.881-1.068c0.64-0.717,0.967-1.78,0.967-3.196v-1.033h-2.642v0.958c0,0.812-0.084,1.334-0.253,1.571
				c-0.169,0.236-0.472,0.356-0.894,0.356c-0.407,0-0.692-0.138-0.863-0.418s-0.256-0.786-0.256-1.51v-2.604H38.768z M33.86,35.432
				c0-0.579,0.088-0.993,0.266-1.243c0.179-0.25,0.473-0.372,0.878-0.372c0.396,0,0.679,0.122,0.854,0.372
				c0.179,0.25,0.268,0.664,0.268,1.243v1.396H33.86V35.432z"/>
		</g>
	</g>
</g>
</svg>
